<mxfile host="app.diagrams.net" modified="2023-10-28T08:57:35.744Z" agent="Mozilla/5.0 (Windows NT 10.0; Win64; x64) AppleWebKit/537.36 (KHTML, like Gecko) Chrome/118.0.0.0 Safari/537.36 Edg/118.0.2088.69" etag="VYw_u78e_THoTv3izqfd" version="22.0.8" type="onedrive">
  <diagram id="R2lEEEUBdFMjLlhIrx00" name="Page-1">
    <mxGraphModel grid="1" page="1" gridSize="10" guides="1" tooltips="1" connect="1" arrows="1" fold="1" pageScale="1" pageWidth="850" pageHeight="1100" math="0" shadow="0" extFonts="Permanent Marker^https://fonts.googleapis.com/css?family=Permanent+Marker">
      <root>
        <mxCell id="0" />
        <mxCell id="1" parent="0" />
        <mxCell id="nbdcjBEeCCnmlf7uIl51-1" value="用户" style="rounded=0;whiteSpace=wrap;html=1;" vertex="1" parent="1">
          <mxGeometry x="190" y="350" width="60" height="40" as="geometry" />
        </mxCell>
        <mxCell id="nbdcjBEeCCnmlf7uIl51-2" value="姓名" style="rounded=1;whiteSpace=wrap;html=1;" vertex="1" parent="1">
          <mxGeometry x="50" y="420" width="40" height="30" as="geometry" />
        </mxCell>
        <mxCell id="nbdcjBEeCCnmlf7uIl51-5" value="生日" style="rounded=1;whiteSpace=wrap;html=1;" vertex="1" parent="1">
          <mxGeometry x="160" y="420" width="40" height="30" as="geometry" />
        </mxCell>
        <mxCell id="nbdcjBEeCCnmlf7uIl51-6" value="邮箱" style="rounded=1;whiteSpace=wrap;html=1;" vertex="1" parent="1">
          <mxGeometry x="220" y="420" width="40" height="30" as="geometry" />
        </mxCell>
        <mxCell id="nbdcjBEeCCnmlf7uIl51-7" value="手机号" style="rounded=1;whiteSpace=wrap;html=1;" vertex="1" parent="1">
          <mxGeometry x="280" y="420" width="40" height="30" as="geometry" />
        </mxCell>
        <mxCell id="nbdcjBEeCCnmlf7uIl51-8" value="密码" style="rounded=1;whiteSpace=wrap;html=1;" vertex="1" parent="1">
          <mxGeometry x="340" y="420" width="40" height="30" as="geometry" />
        </mxCell>
        <mxCell id="nbdcjBEeCCnmlf7uIl51-9" value="用户名" style="rounded=1;whiteSpace=wrap;html=1;" vertex="1" parent="1">
          <mxGeometry x="100" y="420" width="40" height="30" as="geometry" />
        </mxCell>
        <mxCell id="nbdcjBEeCCnmlf7uIl51-11" value="" style="endArrow=none;html=1;rounded=0;entryX=0.5;entryY=1;entryDx=0;entryDy=0;exitX=0.5;exitY=0;exitDx=0;exitDy=0;" edge="1" parent="1" source="nbdcjBEeCCnmlf7uIl51-2" target="nbdcjBEeCCnmlf7uIl51-1">
          <mxGeometry width="50" height="50" relative="1" as="geometry">
            <mxPoint x="430" y="500" as="sourcePoint" />
            <mxPoint x="480" y="450" as="targetPoint" />
          </mxGeometry>
        </mxCell>
        <mxCell id="nbdcjBEeCCnmlf7uIl51-13" value="" style="endArrow=none;html=1;rounded=0;entryX=0.5;entryY=1;entryDx=0;entryDy=0;exitX=0.5;exitY=0;exitDx=0;exitDy=0;" edge="1" parent="1" source="nbdcjBEeCCnmlf7uIl51-9" target="nbdcjBEeCCnmlf7uIl51-1">
          <mxGeometry width="50" height="50" relative="1" as="geometry">
            <mxPoint x="80" y="430" as="sourcePoint" />
            <mxPoint x="230" y="400" as="targetPoint" />
          </mxGeometry>
        </mxCell>
        <mxCell id="nbdcjBEeCCnmlf7uIl51-14" value="" style="endArrow=none;html=1;rounded=0;exitX=0.5;exitY=0;exitDx=0;exitDy=0;" edge="1" parent="1" source="nbdcjBEeCCnmlf7uIl51-5">
          <mxGeometry width="50" height="50" relative="1" as="geometry">
            <mxPoint x="90" y="440" as="sourcePoint" />
            <mxPoint x="220" y="390" as="targetPoint" />
          </mxGeometry>
        </mxCell>
        <mxCell id="nbdcjBEeCCnmlf7uIl51-15" value="" style="endArrow=none;html=1;rounded=0;exitX=0.5;exitY=0;exitDx=0;exitDy=0;" edge="1" parent="1" source="nbdcjBEeCCnmlf7uIl51-6">
          <mxGeometry width="50" height="50" relative="1" as="geometry">
            <mxPoint x="100" y="450" as="sourcePoint" />
            <mxPoint x="220" y="390" as="targetPoint" />
          </mxGeometry>
        </mxCell>
        <mxCell id="nbdcjBEeCCnmlf7uIl51-16" value="" style="endArrow=none;html=1;rounded=0;entryX=0.5;entryY=1;entryDx=0;entryDy=0;exitX=0.5;exitY=0;exitDx=0;exitDy=0;" edge="1" parent="1" source="nbdcjBEeCCnmlf7uIl51-7" target="nbdcjBEeCCnmlf7uIl51-1">
          <mxGeometry width="50" height="50" relative="1" as="geometry">
            <mxPoint x="110" y="460" as="sourcePoint" />
            <mxPoint x="260" y="430" as="targetPoint" />
          </mxGeometry>
        </mxCell>
        <mxCell id="nbdcjBEeCCnmlf7uIl51-17" value="" style="endArrow=none;html=1;rounded=0;exitX=0.5;exitY=0;exitDx=0;exitDy=0;" edge="1" parent="1" source="nbdcjBEeCCnmlf7uIl51-8">
          <mxGeometry width="50" height="50" relative="1" as="geometry">
            <mxPoint x="120" y="470" as="sourcePoint" />
            <mxPoint x="220" y="390" as="targetPoint" />
          </mxGeometry>
        </mxCell>
        <mxCell id="nbdcjBEeCCnmlf7uIl51-18" value="住处" style="rounded=0;whiteSpace=wrap;html=1;" vertex="1" parent="1">
          <mxGeometry x="570" y="80" width="60" height="40" as="geometry" />
        </mxCell>
        <mxCell id="nbdcjBEeCCnmlf7uIl51-19" value="拥有者" style="rounded=1;whiteSpace=wrap;html=1;" vertex="1" parent="1">
          <mxGeometry x="490" y="150" width="40" height="30" as="geometry" />
        </mxCell>
        <mxCell id="nbdcjBEeCCnmlf7uIl51-32" style="rounded=0;orthogonalLoop=1;jettySize=auto;html=1;exitX=0.5;exitY=0;exitDx=0;exitDy=0;entryX=0.5;entryY=1;entryDx=0;entryDy=0;endArrow=none;endFill=0;" edge="1" parent="1" source="nbdcjBEeCCnmlf7uIl51-20" target="nbdcjBEeCCnmlf7uIl51-18">
          <mxGeometry relative="1" as="geometry" />
        </mxCell>
        <mxCell id="nbdcjBEeCCnmlf7uIl51-20" value="标题" style="rounded=1;whiteSpace=wrap;html=1;" vertex="1" parent="1">
          <mxGeometry x="540" y="150" width="40" height="30" as="geometry" />
        </mxCell>
        <mxCell id="nbdcjBEeCCnmlf7uIl51-33" style="rounded=0;orthogonalLoop=1;jettySize=auto;html=1;exitX=0.5;exitY=0;exitDx=0;exitDy=0;endArrow=none;endFill=0;" edge="1" parent="1" source="nbdcjBEeCCnmlf7uIl51-21" target="nbdcjBEeCCnmlf7uIl51-18">
          <mxGeometry relative="1" as="geometry" />
        </mxCell>
        <mxCell id="nbdcjBEeCCnmlf7uIl51-21" value="地址" style="rounded=1;whiteSpace=wrap;html=1;" vertex="1" parent="1">
          <mxGeometry x="590" y="150" width="40" height="30" as="geometry" />
        </mxCell>
        <mxCell id="nbdcjBEeCCnmlf7uIl51-34" style="edgeStyle=none;shape=connector;rounded=0;orthogonalLoop=1;jettySize=auto;html=1;exitX=0.5;exitY=0;exitDx=0;exitDy=0;entryX=0.5;entryY=1;entryDx=0;entryDy=0;labelBackgroundColor=default;strokeColor=default;align=center;verticalAlign=middle;fontFamily=Helvetica;fontSize=11;fontColor=default;endArrow=none;endFill=0;" edge="1" parent="1" source="nbdcjBEeCCnmlf7uIl51-22" target="nbdcjBEeCCnmlf7uIl51-18">
          <mxGeometry relative="1" as="geometry" />
        </mxCell>
        <mxCell id="nbdcjBEeCCnmlf7uIl51-22" value="图片" style="rounded=1;whiteSpace=wrap;html=1;" vertex="1" parent="1">
          <mxGeometry x="640" y="150" width="40" height="30" as="geometry" />
        </mxCell>
        <mxCell id="nbdcjBEeCCnmlf7uIl51-35" style="edgeStyle=none;shape=connector;rounded=0;orthogonalLoop=1;jettySize=auto;html=1;exitX=0.5;exitY=0;exitDx=0;exitDy=0;labelBackgroundColor=default;strokeColor=default;align=center;verticalAlign=middle;fontFamily=Helvetica;fontSize=11;fontColor=default;endArrow=none;endFill=0;" edge="1" parent="1" source="nbdcjBEeCCnmlf7uIl51-23">
          <mxGeometry relative="1" as="geometry">
            <mxPoint x="600" y="120" as="targetPoint" />
          </mxGeometry>
        </mxCell>
        <mxCell id="nbdcjBEeCCnmlf7uIl51-23" value="描述" style="rounded=1;whiteSpace=wrap;html=1;" vertex="1" parent="1">
          <mxGeometry x="690" y="150" width="40" height="30" as="geometry" />
        </mxCell>
        <mxCell id="nbdcjBEeCCnmlf7uIl51-36" style="edgeStyle=none;shape=connector;rounded=0;orthogonalLoop=1;jettySize=auto;html=1;exitX=0.5;exitY=0;exitDx=0;exitDy=0;entryX=0.5;entryY=1;entryDx=0;entryDy=0;labelBackgroundColor=default;strokeColor=default;align=center;verticalAlign=middle;fontFamily=Helvetica;fontSize=11;fontColor=default;endArrow=none;endFill=0;" edge="1" parent="1" source="nbdcjBEeCCnmlf7uIl51-24" target="nbdcjBEeCCnmlf7uIl51-18">
          <mxGeometry relative="1" as="geometry" />
        </mxCell>
        <mxCell id="nbdcjBEeCCnmlf7uIl51-24" value="福利" style="rounded=1;whiteSpace=wrap;html=1;" vertex="1" parent="1">
          <mxGeometry x="490" y="200" width="40" height="30" as="geometry" />
        </mxCell>
        <mxCell id="nbdcjBEeCCnmlf7uIl51-37" style="edgeStyle=none;shape=connector;rounded=0;orthogonalLoop=1;jettySize=auto;html=1;exitX=0.5;exitY=0;exitDx=0;exitDy=0;entryX=0.5;entryY=1;entryDx=0;entryDy=0;labelBackgroundColor=default;strokeColor=default;align=center;verticalAlign=middle;fontFamily=Helvetica;fontSize=11;fontColor=default;endArrow=none;endFill=0;" edge="1" parent="1" source="nbdcjBEeCCnmlf7uIl51-25" target="nbdcjBEeCCnmlf7uIl51-18">
          <mxGeometry relative="1" as="geometry" />
        </mxCell>
        <mxCell id="nbdcjBEeCCnmlf7uIl51-25" value="额外信息" style="rounded=1;whiteSpace=wrap;html=1;" vertex="1" parent="1">
          <mxGeometry x="540" y="200" width="40" height="30" as="geometry" />
        </mxCell>
        <mxCell id="nbdcjBEeCCnmlf7uIl51-40" style="edgeStyle=none;shape=connector;rounded=0;orthogonalLoop=1;jettySize=auto;html=1;exitX=0.5;exitY=0;exitDx=0;exitDy=0;labelBackgroundColor=default;strokeColor=default;align=center;verticalAlign=middle;fontFamily=Helvetica;fontSize=11;fontColor=default;endArrow=none;endFill=0;" edge="1" parent="1" source="nbdcjBEeCCnmlf7uIl51-26">
          <mxGeometry relative="1" as="geometry">
            <mxPoint x="600" y="120" as="targetPoint" />
          </mxGeometry>
        </mxCell>
        <mxCell id="nbdcjBEeCCnmlf7uIl51-26" value="入住时间" style="rounded=1;whiteSpace=wrap;html=1;" vertex="1" parent="1">
          <mxGeometry x="590" y="200" width="40" height="30" as="geometry" />
        </mxCell>
        <mxCell id="nbdcjBEeCCnmlf7uIl51-41" style="edgeStyle=none;shape=connector;rounded=0;orthogonalLoop=1;jettySize=auto;html=1;exitX=0.5;exitY=0;exitDx=0;exitDy=0;entryX=0.5;entryY=1;entryDx=0;entryDy=0;labelBackgroundColor=default;strokeColor=default;align=center;verticalAlign=middle;fontFamily=Helvetica;fontSize=11;fontColor=default;endArrow=none;endFill=0;" edge="1" parent="1" source="nbdcjBEeCCnmlf7uIl51-27" target="nbdcjBEeCCnmlf7uIl51-18">
          <mxGeometry relative="1" as="geometry" />
        </mxCell>
        <mxCell id="nbdcjBEeCCnmlf7uIl51-27" value="退房时间" style="rounded=1;whiteSpace=wrap;html=1;" vertex="1" parent="1">
          <mxGeometry x="640" y="200" width="40" height="30" as="geometry" />
        </mxCell>
        <mxCell id="nbdcjBEeCCnmlf7uIl51-42" style="edgeStyle=none;shape=connector;rounded=0;orthogonalLoop=1;jettySize=auto;html=1;exitX=0.5;exitY=0;exitDx=0;exitDy=0;labelBackgroundColor=default;strokeColor=default;align=center;verticalAlign=middle;fontFamily=Helvetica;fontSize=11;fontColor=default;endArrow=none;endFill=0;" edge="1" parent="1" source="nbdcjBEeCCnmlf7uIl51-28">
          <mxGeometry relative="1" as="geometry">
            <mxPoint x="600" y="120" as="targetPoint" />
          </mxGeometry>
        </mxCell>
        <mxCell id="nbdcjBEeCCnmlf7uIl51-28" value="最多客户" style="rounded=1;whiteSpace=wrap;html=1;" vertex="1" parent="1">
          <mxGeometry x="690" y="200" width="40" height="30" as="geometry" />
        </mxCell>
        <mxCell id="nbdcjBEeCCnmlf7uIl51-43" style="edgeStyle=none;shape=connector;rounded=0;orthogonalLoop=1;jettySize=auto;html=1;exitX=0.5;exitY=0;exitDx=0;exitDy=0;labelBackgroundColor=default;strokeColor=default;align=center;verticalAlign=middle;fontFamily=Helvetica;fontSize=11;fontColor=default;endArrow=none;endFill=0;" edge="1" parent="1" source="nbdcjBEeCCnmlf7uIl51-29">
          <mxGeometry relative="1" as="geometry">
            <mxPoint x="600" y="120" as="targetPoint" />
          </mxGeometry>
        </mxCell>
        <mxCell id="nbdcjBEeCCnmlf7uIl51-29" value="价格" style="rounded=1;whiteSpace=wrap;html=1;" vertex="1" parent="1">
          <mxGeometry x="740" y="200" width="40" height="30" as="geometry" />
        </mxCell>
        <mxCell id="nbdcjBEeCCnmlf7uIl51-30" value="" style="endArrow=none;html=1;rounded=0;entryX=0.5;entryY=1;entryDx=0;entryDy=0;exitX=0.5;exitY=0;exitDx=0;exitDy=0;" edge="1" parent="1" source="nbdcjBEeCCnmlf7uIl51-19" target="nbdcjBEeCCnmlf7uIl51-18">
          <mxGeometry width="50" height="50" relative="1" as="geometry">
            <mxPoint x="400" y="230" as="sourcePoint" />
            <mxPoint x="450" y="180" as="targetPoint" />
          </mxGeometry>
        </mxCell>
        <mxCell id="nbdcjBEeCCnmlf7uIl51-53" style="edgeStyle=none;shape=connector;rounded=0;orthogonalLoop=1;jettySize=auto;html=1;exitX=0.5;exitY=1;exitDx=0;exitDy=0;entryX=0.5;entryY=0;entryDx=0;entryDy=0;labelBackgroundColor=default;strokeColor=default;align=center;verticalAlign=middle;fontFamily=Helvetica;fontSize=11;fontColor=default;endArrow=none;endFill=0;" edge="1" parent="1" source="nbdcjBEeCCnmlf7uIl51-44" target="nbdcjBEeCCnmlf7uIl51-45">
          <mxGeometry relative="1" as="geometry" />
        </mxCell>
        <mxCell id="nbdcjBEeCCnmlf7uIl51-54" style="edgeStyle=none;shape=connector;rounded=0;orthogonalLoop=1;jettySize=auto;html=1;exitX=0.5;exitY=1;exitDx=0;exitDy=0;entryX=0.5;entryY=0;entryDx=0;entryDy=0;labelBackgroundColor=default;strokeColor=default;align=center;verticalAlign=middle;fontFamily=Helvetica;fontSize=11;fontColor=default;endArrow=none;endFill=0;" edge="1" parent="1" source="nbdcjBEeCCnmlf7uIl51-44" target="nbdcjBEeCCnmlf7uIl51-46">
          <mxGeometry relative="1" as="geometry" />
        </mxCell>
        <mxCell id="nbdcjBEeCCnmlf7uIl51-55" style="edgeStyle=none;shape=connector;rounded=0;orthogonalLoop=1;jettySize=auto;html=1;exitX=0.5;exitY=1;exitDx=0;exitDy=0;entryX=0.5;entryY=0;entryDx=0;entryDy=0;labelBackgroundColor=default;strokeColor=default;align=center;verticalAlign=middle;fontFamily=Helvetica;fontSize=11;fontColor=default;endArrow=none;endFill=0;" edge="1" parent="1" source="nbdcjBEeCCnmlf7uIl51-44" target="nbdcjBEeCCnmlf7uIl51-47">
          <mxGeometry relative="1" as="geometry" />
        </mxCell>
        <mxCell id="nbdcjBEeCCnmlf7uIl51-56" style="edgeStyle=none;shape=connector;rounded=0;orthogonalLoop=1;jettySize=auto;html=1;exitX=0.5;exitY=1;exitDx=0;exitDy=0;entryX=0.5;entryY=0;entryDx=0;entryDy=0;labelBackgroundColor=default;strokeColor=default;align=center;verticalAlign=middle;fontFamily=Helvetica;fontSize=11;fontColor=default;endArrow=none;endFill=0;" edge="1" parent="1" source="nbdcjBEeCCnmlf7uIl51-44" target="nbdcjBEeCCnmlf7uIl51-48">
          <mxGeometry relative="1" as="geometry" />
        </mxCell>
        <mxCell id="nbdcjBEeCCnmlf7uIl51-57" style="edgeStyle=none;shape=connector;rounded=0;orthogonalLoop=1;jettySize=auto;html=1;exitX=0.5;exitY=1;exitDx=0;exitDy=0;entryX=0.5;entryY=0;entryDx=0;entryDy=0;labelBackgroundColor=default;strokeColor=default;align=center;verticalAlign=middle;fontFamily=Helvetica;fontSize=11;fontColor=default;endArrow=none;endFill=0;" edge="1" parent="1" source="nbdcjBEeCCnmlf7uIl51-44" target="nbdcjBEeCCnmlf7uIl51-49">
          <mxGeometry relative="1" as="geometry" />
        </mxCell>
        <mxCell id="nbdcjBEeCCnmlf7uIl51-58" style="edgeStyle=none;shape=connector;rounded=0;orthogonalLoop=1;jettySize=auto;html=1;exitX=0.5;exitY=1;exitDx=0;exitDy=0;entryX=0.5;entryY=0;entryDx=0;entryDy=0;labelBackgroundColor=default;strokeColor=default;align=center;verticalAlign=middle;fontFamily=Helvetica;fontSize=11;fontColor=default;endArrow=none;endFill=0;" edge="1" parent="1" source="nbdcjBEeCCnmlf7uIl51-44" target="nbdcjBEeCCnmlf7uIl51-51">
          <mxGeometry relative="1" as="geometry" />
        </mxCell>
        <mxCell id="nbdcjBEeCCnmlf7uIl51-59" style="edgeStyle=none;shape=connector;rounded=0;orthogonalLoop=1;jettySize=auto;html=1;exitX=0.5;exitY=1;exitDx=0;exitDy=0;entryX=0.5;entryY=0;entryDx=0;entryDy=0;labelBackgroundColor=default;strokeColor=default;align=center;verticalAlign=middle;fontFamily=Helvetica;fontSize=11;fontColor=default;endArrow=none;endFill=0;" edge="1" parent="1" source="nbdcjBEeCCnmlf7uIl51-44" target="nbdcjBEeCCnmlf7uIl51-52">
          <mxGeometry relative="1" as="geometry" />
        </mxCell>
        <mxCell id="nbdcjBEeCCnmlf7uIl51-60" style="edgeStyle=none;shape=connector;rounded=0;orthogonalLoop=1;jettySize=auto;html=1;exitX=0.5;exitY=1;exitDx=0;exitDy=0;entryX=0.5;entryY=0;entryDx=0;entryDy=0;labelBackgroundColor=default;strokeColor=default;align=center;verticalAlign=middle;fontFamily=Helvetica;fontSize=11;fontColor=default;endArrow=none;endFill=0;" edge="1" parent="1" source="nbdcjBEeCCnmlf7uIl51-44" target="nbdcjBEeCCnmlf7uIl51-50">
          <mxGeometry relative="1" as="geometry" />
        </mxCell>
        <mxCell id="nbdcjBEeCCnmlf7uIl51-44" value="订单" style="rounded=0;whiteSpace=wrap;html=1;" vertex="1" parent="1">
          <mxGeometry x="170" y="60" width="60" height="40" as="geometry" />
        </mxCell>
        <mxCell id="nbdcjBEeCCnmlf7uIl51-45" value="标题" style="rounded=1;whiteSpace=wrap;html=1;" vertex="1" parent="1">
          <mxGeometry x="40" y="140" width="40" height="30" as="geometry" />
        </mxCell>
        <mxCell id="nbdcjBEeCCnmlf7uIl51-46" value="买家" style="rounded=1;whiteSpace=wrap;html=1;" vertex="1" parent="1">
          <mxGeometry x="100" y="140" width="40" height="30" as="geometry" />
        </mxCell>
        <mxCell id="nbdcjBEeCCnmlf7uIl51-47" value="入住日期" style="rounded=1;whiteSpace=wrap;html=1;" vertex="1" parent="1">
          <mxGeometry x="160" y="140" width="40" height="30" as="geometry" />
        </mxCell>
        <mxCell id="nbdcjBEeCCnmlf7uIl51-48" value="退房日期" style="rounded=1;whiteSpace=wrap;html=1;" vertex="1" parent="1">
          <mxGeometry x="220" y="140" width="40" height="30" as="geometry" />
        </mxCell>
        <mxCell id="nbdcjBEeCCnmlf7uIl51-49" value="客户数量" style="rounded=1;whiteSpace=wrap;html=1;" vertex="1" parent="1">
          <mxGeometry x="280" y="140" width="40" height="30" as="geometry" />
        </mxCell>
        <mxCell id="nbdcjBEeCCnmlf7uIl51-50" value="价格" style="rounded=1;whiteSpace=wrap;html=1;" vertex="1" parent="1">
          <mxGeometry x="430" y="140" width="40" height="30" as="geometry" />
        </mxCell>
        <mxCell id="nbdcjBEeCCnmlf7uIl51-51" value="姓名" style="rounded=1;whiteSpace=wrap;html=1;" vertex="1" parent="1">
          <mxGeometry x="330" y="140" width="40" height="30" as="geometry" />
        </mxCell>
        <mxCell id="nbdcjBEeCCnmlf7uIl51-52" value="手机号" style="rounded=1;whiteSpace=wrap;html=1;" vertex="1" parent="1">
          <mxGeometry x="380" y="140" width="40" height="30" as="geometry" />
        </mxCell>
        <mxCell id="nbdcjBEeCCnmlf7uIl51-62" style="edgeStyle=none;shape=connector;rounded=0;orthogonalLoop=1;jettySize=auto;html=1;exitX=0.5;exitY=1;exitDx=0;exitDy=0;entryX=0.5;entryY=0;entryDx=0;entryDy=0;labelBackgroundColor=default;strokeColor=default;align=center;verticalAlign=middle;fontFamily=Helvetica;fontSize=11;fontColor=default;endArrow=none;endFill=0;" edge="1" parent="1" source="nbdcjBEeCCnmlf7uIl51-61" target="nbdcjBEeCCnmlf7uIl51-1">
          <mxGeometry relative="1" as="geometry" />
        </mxCell>
        <mxCell id="nbdcjBEeCCnmlf7uIl51-68" value="m" style="edgeLabel;html=1;align=center;verticalAlign=middle;resizable=0;points=[];fontSize=11;fontFamily=Helvetica;fontColor=default;" connectable="0" vertex="1" parent="nbdcjBEeCCnmlf7uIl51-62">
          <mxGeometry x="-0.2162" y="2" relative="1" as="geometry">
            <mxPoint as="offset" />
          </mxGeometry>
        </mxCell>
        <mxCell id="nbdcjBEeCCnmlf7uIl51-63" style="edgeStyle=none;shape=connector;rounded=0;orthogonalLoop=1;jettySize=auto;html=1;exitX=0.5;exitY=0;exitDx=0;exitDy=0;entryX=0.5;entryY=1;entryDx=0;entryDy=0;labelBackgroundColor=default;strokeColor=default;align=center;verticalAlign=middle;fontFamily=Helvetica;fontSize=11;fontColor=default;endArrow=none;endFill=0;" edge="1" parent="1" source="nbdcjBEeCCnmlf7uIl51-61" target="nbdcjBEeCCnmlf7uIl51-44">
          <mxGeometry relative="1" as="geometry" />
        </mxCell>
        <mxCell id="nbdcjBEeCCnmlf7uIl51-67" value="n" style="edgeLabel;html=1;align=center;verticalAlign=middle;resizable=0;points=[];fontSize=11;fontFamily=Helvetica;fontColor=default;" connectable="0" vertex="1" parent="nbdcjBEeCCnmlf7uIl51-63">
          <mxGeometry x="-0.4463" y="-1" relative="1" as="geometry">
            <mxPoint as="offset" />
          </mxGeometry>
        </mxCell>
        <mxCell id="nbdcjBEeCCnmlf7uIl51-61" value="预订" style="rhombus;whiteSpace=wrap;html=1;fontFamily=Helvetica;fontSize=11;fontColor=default;" vertex="1" parent="1">
          <mxGeometry x="170" y="240" width="80" height="50" as="geometry" />
        </mxCell>
        <mxCell id="nbdcjBEeCCnmlf7uIl51-65" style="edgeStyle=none;shape=connector;rounded=0;orthogonalLoop=1;jettySize=auto;html=1;exitX=0;exitY=0.5;exitDx=0;exitDy=0;entryX=1;entryY=0.5;entryDx=0;entryDy=0;labelBackgroundColor=default;strokeColor=default;align=center;verticalAlign=middle;fontFamily=Helvetica;fontSize=11;fontColor=default;endArrow=none;endFill=0;" edge="1" parent="1" source="nbdcjBEeCCnmlf7uIl51-64" target="nbdcjBEeCCnmlf7uIl51-1">
          <mxGeometry relative="1" as="geometry" />
        </mxCell>
        <mxCell id="nbdcjBEeCCnmlf7uIl51-69" value="1" style="edgeLabel;html=1;align=center;verticalAlign=middle;resizable=0;points=[];fontSize=11;fontFamily=Helvetica;fontColor=default;" connectable="0" vertex="1" parent="nbdcjBEeCCnmlf7uIl51-65">
          <mxGeometry x="-0.0816" y="3" relative="1" as="geometry">
            <mxPoint as="offset" />
          </mxGeometry>
        </mxCell>
        <mxCell id="nbdcjBEeCCnmlf7uIl51-66" style="edgeStyle=none;shape=connector;rounded=0;orthogonalLoop=1;jettySize=auto;html=1;exitX=0.5;exitY=0;exitDx=0;exitDy=0;labelBackgroundColor=default;strokeColor=default;align=center;verticalAlign=middle;fontFamily=Helvetica;fontSize=11;fontColor=default;endArrow=none;endFill=0;" edge="1" parent="1" source="nbdcjBEeCCnmlf7uIl51-64">
          <mxGeometry relative="1" as="geometry">
            <mxPoint x="600" y="120" as="targetPoint" />
          </mxGeometry>
        </mxCell>
        <mxCell id="nbdcjBEeCCnmlf7uIl51-70" value="n" style="edgeLabel;html=1;align=center;verticalAlign=middle;resizable=0;points=[];fontSize=11;fontFamily=Helvetica;fontColor=default;" connectable="0" vertex="1" parent="nbdcjBEeCCnmlf7uIl51-66">
          <mxGeometry x="-0.4688" y="-1" relative="1" as="geometry">
            <mxPoint as="offset" />
          </mxGeometry>
        </mxCell>
        <mxCell id="nbdcjBEeCCnmlf7uIl51-64" value="发布" style="rhombus;whiteSpace=wrap;html=1;fontFamily=Helvetica;fontSize=11;fontColor=default;" vertex="1" parent="1">
          <mxGeometry x="390" y="280" width="80" height="50" as="geometry" />
        </mxCell>
      </root>
    </mxGraphModel>
  </diagram>
</mxfile>
